<svg viewBox="0 0 227.44 136.17" xmlns="http://www.w3.org/2000/svg" data-name="Calque 1" id="Calque_1"><defs><style>.cls-1{fill:#f8bc29;}.cls-2{fill:#547dbe;}.cls-3{fill:#3475a5;}.cls-4{fill:#e52a38;}.cls-5{fill:#fff;}</style></defs><title>Sans titre - 1</title><path transform="translate(-33.56 -34.02)" d="M143,75a4.56,4.56,0,0,0,0,5.21S157.35,78,157.25,91v66.16s.2.64,1.6,1.14h16.83s.8-.1.9-1.5c0,0,.5-57.33-.7-70.41,0,0-.67-11.62-14.15-12Z" class="cls-1"></path><path transform="translate(-33.56 -34.02)" d="M185.9,41.38s-3.67,2.54-.47,5.75c0,0,15-3.28,14,15.08l-.17,94.38s.67,1.48,1.27,1.61h17.13a1.65,1.65,0,0,0,.86-1.84L218,53.29s.67-10.5-13-11.91Z" class="cls-2"></path><path transform="translate(-33.56 -34.02)" d="M228.36,41.38s-3.67,2.54-.46,5.75c0,0,14.95-3.28,13.95,15.08l-.17,94.38s.67,1.48,1.27,1.61h17.13a1.65,1.65,0,0,0,.87-1.84l-.53-103.07s.66-10.5-13-11.91Z" class="cls-3"></path><path transform="translate(-33.56 -34.02)" d="M176.69,55.64a10.52,10.52,0,1,1-10.52-10.52A10.51,10.51,0,0,1,176.69,55.64Z" class="cls-1"></path><path transform="translate(-33.56 -34.02)" d="M60.26,116.19a102.14,102.14,0,0,0,8.18,16.54,9.45,9.45,0,0,1,5.06-2.06c-.47-1.6-1-3.2-1.41-4.82C69.7,117.19,69.2,108.11,68,99.24c-.76-5.41,3.32-8.62,7.54-8.93L68.33,43.89s-.9-10.47-14.63-9.84L34.9,36.86s-3.25,3,.39,5.74c0,0,14.29-5.44,16,12.85Z" class="cls-4"></path><path transform="translate(-33.56 -34.02)" d="M135.77,116.69A41.93,41.93,0,1,1,93.84,74.76,41.93,41.93,0,0,1,135.77,116.69Z" class="cls-5"></path><rect transform="translate(-47.15 -24.92) rotate(-5.06)" height="5.03" width="72.62" y="155.88" x="59.96" class="cls-4"></rect><circle transform="translate(-72.55 13.28) rotate(-23.48)" r="40.11" cy="117.47" cx="94.33" class="cls-5"></circle><path transform="translate(-33.56 -34.02)" d="M132.76,116.69c0,22-17.42,39.76-38.92,39.76s-38.92-17.8-38.92-39.76S72.34,76.93,93.84,76.93,132.76,94.73,132.76,116.69Z" class="cls-4"></path><path transform="translate(-33.56 -34.02)" d="M122.85,114.83A27.41,27.41,0,1,1,95.44,87.42,27.41,27.41,0,0,1,122.85,114.83Z" class="cls-5"></path><rect transform="translate(-47.97 -18.65) rotate(-10)" height="24.11" width="9.83" y="78.02" x="75.76" class="cls-5"></rect><path transform="translate(-33.56 -34.02)" d="M72.88,165.43a4.81,4.81,0,1,1-4.81-4.76A4.8,4.8,0,0,1,72.88,165.43Z" class="cls-5"></path><path transform="translate(-33.56 -34.02)" d="M72.23,165.21A4.19,4.19,0,1,1,68,161,4.2,4.2,0,0,1,72.23,165.21Z" class="cls-4"></path><path transform="translate(-33.56 -34.02)" d="M132.83,163a4,4,0,1,1-4-4A4,4,0,0,1,132.83,163Z" class="cls-4"></path><path transform="translate(-33.56 -34.02)" d="M157.25,110.36" class="cls-4"></path></svg>